<svg id="Layer_1" data-name="Layer 1" xmlns="http://www.w3.org/2000/svg" viewBox="0 0 599.76 548"><title>2</title><path d="M668.54,950.58q0,34.44,0,68.9c0,2.11.18,3.8-3,3.77-39.06-.27-78.14.4-117.2-.68-4.73-.13-4.83-.24-3.46-4.88,6-20.21,11.58-40.51,15.22-61.3,1.88-10.69,3.43-21.41,3.52-32.32.06-7-2.27-12.14-7.81-16.75C531.4,887,506.59,867,482,846.87c-16.8-13.76-33.86-27.22-49.3-42.55a42.88,42.88,0,0,1-9.61-14.11c-12.75-30.62-25.68-61.16-38.37-91.81-2.05-4.94-1.14-10.4-.65-15.54q5.26-55.32,12.54-110.42c.16-1.23.4-2.46.67-3.67,1.31-5.9,4-9.07,8.13-9.5,6.68-.7,11.71,1.85,14.31,7.26,1.95,4.07,1.93,8.49,2.11,12.83.81,20.24-.73,40.41-2.13,60.57-.95,13.68,1.66,26.81,5.74,39.74a33.6,33.6,0,0,0,6,11.12q32,39.57,65.33,78.11a23,23,0,0,0,5.31,4.67,6.93,6.93,0,0,0,8.34-.27c5.08-3.51,5.68-5.53,2.37-10.82-7.13-11.35-16.27-21.15-24.61-31.56-11.71-14.61-23.26-29.33-34.16-44.57a19.56,19.56,0,0,1-3.63-13.74c.62-7,5.85-10.93,12.74-9.45,5.55,1.19,10.07,4.34,14.18,8,10.73,9.6,19.83,20.73,29.37,31.44,6.48,7.27,13,14.53,19.35,21.88,10.8,12.42,24.14,21.08,39.28,27.28,9.46,3.88,18.68,8.34,28.15,12.2,18.81,7.68,32.32,21.14,42.94,38.08A250.09,250.09,0,0,1,668.14,878a23,23,0,0,1,.41,5.19q0,33.71,0,67.41Z" transform="translate(-383.42 -475.25)"/><path d="M698.34,950.41c0-17.47.33-34.95-.09-52.42a127.82,127.82,0,0,1,9.88-52.14c7.6-18.53,16.57-36.24,27.9-52.82,9.48-13.86,22.5-22.71,37.54-29.24,12.58-5.46,25-11.27,37.67-16.55a66,66,0,0,0,21.92-15.32c14.23-14.56,27-30.46,40.72-45.45,5.82-6.34,11.68-12.66,18.49-18a30.11,30.11,0,0,1,8-4.78c4.9-1.81,9.38-.79,13.3,2.48,3.69,3.09,3.38,7.32,2.53,11.43-1.08,5.28-4.42,9.46-7.44,13.72C894.9,710.9,879.3,729.11,864.52,748c-3.54,4.51-7,9.08-10.22,13.84-3.59,5.36-3.1,7.81,1.58,11.53,3.29,2.6,7.47,2.15,11-1.68Q876.11,761.6,885,751.2c14.78-17.25,29-35,43.58-52.38,10.63-12.65,16.07-26.92,18-43.12,1.07-9.18.06-18.16-.43-27.23-1-19.07-1.7-38.16-.46-57.25.54-8.39,5.55-12.63,13.49-11.93,5.06.44,7.69,2.47,9.14,7.43,2.63,9,3.18,18.42,4.3,27.69Q977,631.19,981.23,668c.67,5.7,1.17,11.42,1.8,17.12.59,5.35-.56,10.36-2.54,15.32q-18.71,46.92-39,93.15c-3.78,8.58-10.62,14.41-17.34,20.31-28.71,25.21-59,48.55-88.5,72.75-9.27,7.59-18.55,15.17-27.44,23.21a14.19,14.19,0,0,0-5,10c-1,14.62,1.58,28.83,4.32,43,3.62,18.76,9,37.07,14.41,55.35.88,2.95.67,4.16-2.79,4.38-13.72.91-27.45.43-41.18.51-25.46.13-50.93,0-76.39.1-3.08,0-4-.74-4-3.9.13-23,.07-45.94.07-68.91Z" transform="translate(-383.42 -475.25)"/><path d="M741.35,522.5c7.11.07,13,.45,18.65,2.06,14.41,4.09,22.69,14.39,27.43,27.9s5.85,27.2,1.66,41.15a279.38,279.38,0,0,1-19.77,49.6c-4.91,9.36-12.05,16.09-22.82,18.32-17.85,3.69-33.48-10-32-28.13.58-7.21,1.08-14.43,1.62-21.65.81-10.72-1.82-20.77-5.79-30.6-3.6-8.92-6.88-17.93-6.64-27.8.26-10.86,4.88-19.19,14.24-24.74C725.47,524.11,733.71,522,741.35,522.5Z" transform="translate(-383.42 -475.25)"/><path d="M657.82,589c-.17,6.62-1.21,13.15-1.94,19.71a69,69,0,0,0,5,35.54,55.26,55.26,0,0,1,4.57,26.26,16.1,16.1,0,0,1-3.32,9A29.26,29.26,0,0,1,622,685.74c-5.89-4.11-10.59-9.46-15-15a286.69,286.69,0,0,1-26.09-38.77,41.47,41.47,0,0,1-5.68-18c-.55-9.59-1.78-19.32,1-28.67,5.13-17.38,18.23-26.11,34.92-30.36a50.41,50.41,0,0,1,23.74.11c14.34,3.22,22.26,14.15,23,31.41C657.85,587.26,657.82,588.14,657.82,589Z" transform="translate(-383.42 -475.25)"/><path d="M652.86,519.57c-.06,8.21-1.26,14.09-5.39,19.06-6.05,7.27-15.58,7.76-22.33,1.15-9.74-9.54-8.71-28,2-36.26,5.63-4.35,13.87-3.62,19.45,1.76A19.6,19.6,0,0,1,652.86,519.57Z" transform="translate(-383.42 -475.25)"/><path d="M709.36,475.42c5.52-.8,9.25,2.21,12.6,5.95,6.74,7.53,8.48,19.76,4.06,28.29-4.6,8.9-14.8,11.21-22.74,5.16-10.15-7.74-13.33-22-7-32C699.28,478.11,703.06,474.4,709.36,475.42Z" transform="translate(-383.42 -475.25)"/><path d="M610.56,534.73a20.18,20.18,0,0,1-1.43,6.63c-2.15,4.75-6.3,6.71-11.36,5.36-9-2.42-13.73-16.42-8-23.81,4.29-5.49,11.74-5.28,16.75.47A18.3,18.3,0,0,1,610.56,534.73Z" transform="translate(-383.42 -475.25)"/><path d="M737.93,499.54c0-7.08,2.7-11.78,8.17-14.87a6.88,6.88,0,0,1,7.4.24c8.65,5.12,9.44,19.27,1.36,25.25-5.29,3.92-11.74,2.55-14.94-3.19A14.31,14.31,0,0,1,737.93,499.54Z" transform="translate(-383.42 -475.25)"/><path d="M783.17,506.34c0,.13,0,.25,0,.37-.09,5.25-2.73,8.85-7.55,10.88-2.85,1.2-4.71,0-6.57-1.88a11.15,11.15,0,0,1-2.51-12.66c.05-.11.08-.24.13-.35,1.94-4.25,6.56-7.47,9.75-6.82C780.25,496.67,783.17,501.2,783.17,506.34Z" transform="translate(-383.42 -475.25)"/><path d="M574.35,537.49c4.74.08,7.68,2.09,9.59,5.63,2,3.72,2.43,7.61.25,11.38-2.63,4.52-9.86,4.63-13.41.19a13.86,13.86,0,0,1-2.6-12.65A5.63,5.63,0,0,1,574.35,537.49Z" transform="translate(-383.42 -475.25)"/><path d="M785.08,523.88a9.58,9.58,0,0,1,1.75-6c1.88-2.46,4.19-4.52,7.5-4,3.56.57,5,3.51,5.75,6.62,1,4.06-2.29,10.19-6.15,11.75C789.41,534.12,785.06,530,785.08,523.88Z" transform="translate(-383.42 -475.25)"/><path d="M570.3,568.8c-.51,3.26-1.12,6.76-4.88,8-3.55,1.13-5.8-1.38-7.76-3.83-2.18-2.71-3.66-6.08-2.48-9.34,2-5.43,5.67-7.58,11.83-2.55C569.41,563,570,565.76,570.3,568.8Z" transform="translate(-383.42 -475.25)"/><path d="M564.08,588.85c0,3.64-2.2,6-5.51,6.28-5,.48-9.9-4-9.87-9.08s4.79-7.83,9.14-5.21C561,582.75,563.58,585.24,564.08,588.85Z" transform="translate(-383.42 -475.25)"/><path d="M796.86,542.3c.33-5.39,4.17-9.64,8.35-9.26a6.53,6.53,0,0,1,5.93,6.92c-.4,4.59-5.37,9.37-9.4,9C798.43,548.73,796.62,546.24,796.86,542.3Z" transform="translate(-383.42 -475.25)"/></svg>